# xmcd
# 
# Track frame offsets:
#     150
#     21880
#     45150
#     68035
#     88462
#     110270
#     129382
#     146097
#     166460
#     184117
#     204755
#     222337
# 
# Disc length: 3175
# 
# Revision: 20
# Processed by: cddbd v1.5.2PL0 Copyright (c) Steve Scherf et al.
# Submitted via: fre:ac v1.0.31
# 
DISCID=a60c650c
DTITLE=Jonny Lang - Wander This World
DYEAR=1998
DGENRE=Blues
TTITLE0=Still Rainin'
TTITLE1=Second Guessing
TTITLE2=I Am
TTITLE3=Breakin' Me
TTITLE4=Wander This World
TTITLE5=Walking Away
TTITLE6=The Levee
TTITLE7=Angel Of Mercy
TTITLE8=Right Back
TTITLE9=Leaving To Stay
TTITLE10=Before You Hit The Ground
TTITLE11=Cherry Red Wine
EXTD=
EXTT0=
EXTT1=
EXTT2=
EXTT3=
EXTT4=
EXTT5=
EXTT6=
EXTT7=
EXTT8=
EXTT9=
EXTT10=
EXTT11=
PLAYORDER=
